<svg viewBox="0 0 290.667 445.333" xmlns="http://www.w3.org/2000/svg" xmlns:xlink="http://www.w3.org/1999/xlink"><style>:root&gt;svg{display:none}:root&gt;svg:target{display:block}</style><svg viewBox="0 0 60 61.333" id="info" xmlns="http://www.w3.org/2000/svg"><defs><clipPath id="aa" clipPathUnits="userSpaceOnUse"><path d="M0 6.93h450v450H0z"/></clipPath></defs><g clip-path="url(#aa)" fill="#a6a6a6" transform="matrix(.13333 0 0 -.13333 0 61.333)"><path d="M223.48 456.93C100.27 456.93 0 356.691 0 233.488 0 110.25 100.23 10.012 223.48 10.012c123.2 0 223.469 100.238 223.469 223.476 0 123.203-100.269 223.442-223.469 223.442zm0-426.84c-112.152 0-203.402 91.211-203.402 203.398 0 112.153 91.25 203.403 203.402 203.403 112.141 0 203.43-91.25 203.43-203.403 0-112.187-91.289-203.398-203.43-203.398z"/><path d="M222.031 306.379c-8.281 0-15.043-6.719-15.043-15.039V121.5c0-8.32 6.762-15.078 15.043-15.078 8.321 0 15.039 6.758 15.039 15.078v169.84a15.02 15.02 0 01-15.039 15.039zm19.219 41.68c0-10.079-8.199-18.239-18.281-18.239-10.078 0-18.278 8.16-18.278 18.239 0 10.121 8.2 18.281 18.278 18.281 10.082 0 18.281-8.16 18.281-18.281z"/></g></svg><svg viewBox="0 0 290.667 445.333" id="mouse" xmlns="http://www.w3.org/2000/svg"><defs><clipPath id="ba" clipPathUnits="userSpaceOnUse"><path d="M0 8.25h2180v3330H0z"/></clipPath></defs><g clip-path="url(#ba)" transform="matrix(.13333 0 0 -.13333 0 445.333)"><path d="M1196.17 3338.25H940.859C413.281 3338.25 0 2908.29 0 2359.38V988.949C0 440.012 413.281 10.012 940.859 10.012h255.311c539.69 0 978.75 439.136 978.75 978.937V2359.38c0 539.77-439.06 978.87-978.75 978.87zm-118.59-512.97h19.76c30.86 0 55.98-25.12 55.98-55.98v-398.67c0-30.9-25.12-56.01-55.98-56.01h-19.76c-30.86 0-55.98 25.11-55.98 56.01v398.67c0 30.86 25.12 55.98 55.98 55.98zm969.33-1836.331c0-469.219-381.64-850.937-850.74-850.937H940.859c-455.82 0-812.847 373.789-812.847 850.937V2359.38c0 477.11 357.027 850.86 812.847 850.86h81.801v-265.31c-74.691-23.44-129.07-93.32-129.07-175.67v-398.63c0-82.34 54.379-152.23 129.07-175.62v-329.34c0-35.35 28.67-64.02 64.02-64.02 35.35 0 63.98 28.67 63.98 64.02v328.87c75.55 22.93 130.67 93.16 130.67 176.09v398.67c0 82.89-55.12 153.17-130.67 176.1v264.84h45.51c469.1 0 850.74-381.68 850.74-850.86z" fill="#fff"/></g></svg><svg viewBox="0 0 30.667 34.667" id="play" xmlns="http://www.w3.org/2000/svg"><defs><clipPath id="ca" clipPathUnits="userSpaceOnUse"><path d="M0 7.23h230v250H0z"/></clipPath></defs><g clip-path="url(#ca)" transform="matrix(.13333 0 0 -.13333 0 34.667)"><path d="M40.352 251.762C18.09 264.57 0 254.102 0 228.398V38.828C0 13.121 18.09 2.66 40.352 15.43l165.699 95.039c22.269 12.769 22.269 33.511 0 46.293z" fill="#fff"/></g></svg><svg viewBox="0 0 33.333 34.667" id="player" xmlns="http://www.w3.org/2000/svg"><defs><clipPath id="da" clipPathUnits="userSpaceOnUse"><path d="M0 .379h250v250H0z"/></clipPath></defs><g clip-path="url(#da)" fill="#fff" transform="matrix(.13333 0 0 -.13333 0 34.667)"><path d="M159.84 134.91l-49.918 36.25c-1.832 1.328-4.262 1.559-6.25.512a5.977 5.977 0 01-3.281-5.363v-72.54a6.075 6.075 0 013.281-5.39c.859-.43 1.797-.617 2.738-.617 1.211 0 2.461.386 3.512 1.168l49.918 36.25c1.609 1.172 2.5 2.929 2.5 4.84 0 1.96-.93 3.718-2.5 4.89z"/><path d="M120.199 250.379C53.789 250.379 0 196.59 0 130.18S53.79 9.988 120.199 9.988c66.403 0 120.192 53.82 120.192 120.192.039 66.41-53.789 120.199-120.192 120.199zm0-220.32c-55.277 0-100.12 44.812-100.12 100.121 0 55.269 44.843 100.121 100.12 100.121 55.313 0 100.11-44.852 100.11-100.121 0-55.309-44.797-100.121-100.11-100.121z"/></g></svg><svg viewBox="0 0 26.667 29.333" id="share" xmlns="http://www.w3.org/2000/svg"><defs><clipPath id="ea" clipPathUnits="userSpaceOnUse"><path d="M0 8h200v210H0z"/></clipPath></defs><g clip-path="url(#ea)" transform="matrix(.13333 0 0 -.13333 0 29.333)"><path d="M151.988 89.988c-14.136 0-26.519-7.379-33.629-18.469L75.551 95.97C78.28 101.44 80 107.488 80 114.02c0 4.019-.781 7.808-1.879 11.48l44.578 25.469C130 143.039 140.391 138 151.988 138c22.114 0 40 17.93 40 40s-17.886 40-40 40c-22.066 0-40-17.93-40-40 0-4.02.782-7.809 1.883-11.48l-44.57-25.469C61.988 148.98 51.64 154.02 40 154.02c-22.07 0-40-17.93-40-40 0-22.11 17.93-40 40-40 9.102 0 17.422 3.16 24.14 8.28l-.16-.32 48.442-27.652c-.152-1.45-.434-2.848-.434-4.34 0-22.066 17.934-40 40-40 22.114 0 40 17.934 40 40 0 22.114-17.886 40-40 40zm0 111.992c13.282 0 24.032-10.742 24.032-23.98s-10.75-23.98-24.032-23.98c-13.238 0-23.976 10.742-23.976 23.98s10.738 23.98 23.976 23.98zM40 89.988c-13.238 0-23.98 10.742-23.98 24.032C16.02 127.262 26.762 138 40 138s23.98-10.738 23.98-23.98c0-13.29-10.742-24.032-23.98-24.032zm111.988-63.976c-13.238 0-23.976 10.738-23.976 23.976 0 13.282 10.738 24.032 23.976 24.032 13.282 0 24.032-10.75 24.032-24.032 0-13.238-10.75-23.976-24.032-23.976z" fill="#917d5b" fill-rule="evenodd"/></g></svg></svg>